<?xml version="1.0" standalone="no"?>
<!DOCTYPE svg PUBLIC "-//W3C//DTD SVG 20010904//EN"
 "http://www.w3.org/TR/2001/REC-SVG-20010904/DTD/svg10.dtd">
<svg version="1.0" xmlns="http://www.w3.org/2000/svg"
 width="505.000000pt" height="505.000000pt" viewBox="0 0 505.000000 505.000000"
 preserveAspectRatio="xMidYMid meet">
<metadata>
Created by potrace 1.14, written by Peter Selinger 2001-2017
</metadata>
<g transform="translate(0.000000,505.000000) scale(0.100000,-0.100000)"
fill="#000000" stroke="none">
<path d="M310 2565 l0 -1625 403 1 402 0 124 152 124 152 -194 5 -194 5 -3
588 -2 589 367 -4 c344 -4 373 -6 441 -26 143 -43 259 -120 314 -210 l22 -35
34 39 c233 267 413 538 491 739 60 155 76 237 76 405 0 212 -40 339 -143 452
-97 105 -247 176 -348 164 -97 -11 -401 -136 -378 -155 5 -3 35 -24 67 -45 65
-44 102 -87 141 -163 79 -157 74 -419 -11 -575 -41 -75 -124 -152 -207 -193
-134 -65 -155 -68 -528 -73 l-338 -3 0 208 0 209 -26 35 c-36 47 -79 144 -93
207 -25 118 -10 233 46 352 61 127 232 279 438 387 l80 42 -552 1 -553 0 0
-1625z"/>
<path d="M3130 4164 c64 -49 164 -159 208 -225 l42 -66 83 -6 c284 -22 468
-159 522 -389 33 -142 10 -345 -52 -460 -83 -152 -260 -249 -491 -266 l-85 -7
-42 -80 c-23 -44 -63 -114 -88 -155 l-46 -75 207 -6 c170 -6 220 -10 282 -28
274 -81 400 -260 400 -571 0 -133 -19 -221 -66 -310 -61 -116 -171 -197 -319
-235 -94 -24 -298 -36 -570 -33 l-250 3 -5 378 -5 377 -396 -472 c-218 -260
-420 -501 -449 -536 l-52 -63 1003 4 c891 3 1012 5 1079 20 299 67 498 206
604 421 119 242 124 600 12 841 -81 172 -230 306 -415 370 l-34 11 69 38 c81
45 102 60 173 129 179 173 254 445 206 745 -57 349 -295 574 -685 648 -65 12
-176 17 -480 20 l-395 5 35 -27z"/>
</g>
</svg>
